<?xml version="1.0" standalone="no"?><!DOCTYPE svg PUBLIC "-//W3C//DTD SVG 1.1//EN" "http://www.w3.org/Graphics/SVG/1.1/DTD/svg11.dtd"><svg t="1618019595557" class="icon" viewBox="0 0 1024 1024" version="1.1" xmlns="http://www.w3.org/2000/svg" p-id="1688" xmlns:xlink="http://www.w3.org/1999/xlink" width="200" height="200"><defs><style type="text/css"></style></defs><path d="M803.2 1017.984c-0.938667 3.925333-4.992 6.016-11.989333 6.016h-133.930667c-7.978667 0-14.976-3.498667-20.992-10.581333l-220.928-281.130667-61.781333 58.624v218.069333c0 10.026667-4.992 15.018667-14.976 15.018667H234.88c-10.069333 0-15.104-4.992-15.104-15.018667V15.061333c0-9.941333 5.034667-15.061333 15.104-15.061333h103.722667c9.984 0 14.976 5.12 14.976 15.061333v611.968l264.661333-267.605333c7.04-7.04 14.08-10.496 21.12-10.496h138.197333c6.144 0 10.069333 2.56 12.16 7.68 1.962667 6.357333 1.450667 10.88-1.536 13.44l-279.68 270.677333 291.669334 362.965334c4.053333 4.437333 4.992 8.874667 2.986666 15.274666" p-id="1689"></path></svg>